<svg width="1724" height="208" viewBox="0 0 1724 208" fill="none" xmlns="http://www.w3.org/2000/svg">
<path d="M24.4375 49.4688V205H79.1406V49.4688H146.219V3.34375H-42.6406V49.4688H24.4375ZM251.406 58.1875C237.203 58.1875 223.984 62.9688 217.375 67.8906C214 70.4219 210.906 73.2344 208.234 76.3281C202.75 82.6562 202.328 84.4844 201.625 86.0312H198.953V61H148.891V205H198.953V144.531C198.953 123.297 211.75 109.375 237.062 109.375C249.016 109.375 257.875 111.062 263.781 114.578V59.5938L251.406 58.1875ZM450.812 133C450.812 108.953 443.078 90.5312 427.609 77.5938C412.141 64.6562 391.891 58.1875 366.719 58.1875C341.266 58.1875 320.734 64.6562 305.406 77.5938C290.078 90.5312 282.344 108.953 282.344 133C282.344 157.188 290.078 175.75 305.547 188.547C321.016 201.344 341.547 207.812 367 207.812C377.266 207.812 386.547 206.969 394.984 205.141C411.859 201.625 421.703 195.859 430 188.406C438.297 180.953 441.812 175.047 444.625 168.297C447.297 161.547 447.438 160.141 447.438 158.594H393.859L391.75 162.391C390.484 164.641 387.531 167.031 383.031 169.562C378.531 172.094 373.188 173.359 367 173.359C345.203 173.359 335.219 161.266 334.797 142.844H449.969L450.812 133ZM366.719 92.6406C376.141 92.6406 383.453 95.1719 388.797 100.234C394 105.297 396.672 110.922 396.672 117.109H335.922C335.922 110.781 338.734 105.156 344.219 100.094C349.703 95.1719 357.156 92.6406 366.719 92.6406ZM584.969 61L532.516 127.516V3.34375H482.453V205H532.516V133.281L590.453 205H646.281L584.406 130.469L640.938 61H584.969ZM857.078 121.469L854.828 94.75L826.844 3.34375H739.938V205H794.641V78.0156L786.766 50.5938H792.25L801.812 78.0156L827.406 159.438H891.391L916.984 78.0156L926.547 50.5938H932.031L924.156 78.0156V205H978.859V3.34375H891.953L863.969 94.75L861.719 121.469H857.078ZM1068.3 98.6875L1000.66 205H1062.81L1101.77 138.766H1105.14L1144.09 205H1206.25L1138.61 98.6875L1197.95 3.34375H1136.08L1105.14 60.4375H1101.77L1070.97 3.34375H1008.95L1068.3 98.6875ZM1256.88 77.4531V205H1311.72V3.34375H1266.16L1214.83 44.2656V77.4531H1256.88ZM1375.28 179.547C1392.58 198.391 1416.62 207.812 1447.14 207.812C1477.66 207.812 1501.7 198.391 1519 179.547C1536.3 160.844 1545.02 135.672 1545.02 104.172C1545.02 72.6719 1536.3 47.5 1519 28.6562C1501.7 9.95312 1477.66 0.53125 1447.14 0.53125C1416.62 0.53125 1392.58 9.95312 1375.28 28.6562C1357.98 47.5 1349.27 72.6719 1349.27 104.172C1349.27 135.672 1357.98 160.844 1375.28 179.547ZM1477.38 145.234C1470.62 155.5 1460.5 160.703 1447.14 160.703C1433.78 160.703 1423.66 155.5 1416.91 145.234C1410.16 134.969 1406.78 121.188 1406.78 104.172C1406.78 87.1562 1410.16 73.375 1416.91 63.1094C1423.66 52.8438 1433.78 47.7812 1447.14 47.7812C1460.5 47.7812 1470.62 52.8438 1477.38 63.1094C1484.12 73.375 1487.5 87.1562 1487.5 104.172C1487.5 121.188 1484.12 134.969 1477.38 145.234ZM1639.8 205L1723.05 49.4688V3.34375H1557.95V49.4688H1663.14L1580.17 205H1639.8Z" fill="#16171A"/>
</svg>
