<svg width="22" height="16" viewBox="0 0 22 16" fill="none" xmlns="http://www.w3.org/2000/svg">
<path d="M3.65085 0.946154L8.13701 11.7462H7.69452C6.70853 11.7462 5.90222 12.5525 5.90222 13.5385C5.90222 14.5245 6.70853 15.3308 7.69452 15.3308H19.5407H19.6407V15.2308V14.3846V14.2846H19.5407H7.69452C7.4634 14.2846 7.27857 14.208 7.15177 14.0812C7.02497 13.9544 6.94837 13.7696 6.94837 13.5385C6.94837 13.3073 7.02497 13.1225 7.15177 12.9957C7.27857 12.8689 7.4634 12.7923 7.69452 12.7923H18.6945C19.1616 12.7923 19.5441 12.5083 19.6387 12.035L21.1618 4.41961L21.1619 4.41962L21.1624 4.41644C21.2569 3.84945 20.7887 3.28462 20.2176 3.28462H5.81453L4.40194 -0.0391141L4.37606 -0.1H4.30991H0.925293H0.825293V0V0.846154V0.946154H0.925293H3.65085ZM20.0956 4.33077L18.6125 11.7462H9.28393L6.15299 4.33077H20.0956Z" fill="white" stroke="white" stroke-width="0.2"/>
</svg>
