<svg width="128" height="19" viewBox="0 0 128 19" fill="none" xmlns="http://www.w3.org/2000/svg">
<path d="M8.33203 8.33203L4.94531 1.19531H0L5.90625 12.3398V18H11.0859V12.3398L16.9922 1.19531H12.0469L8.66016 8.33203H8.33203ZM34.0078 15.7969L31.1484 12.5977V6.73828H27.6914V8.85938L24.2109 4.92188V4.75781H31.3477V1.19531H19.0781V4.80469L21.8906 7.82812V7.96875L21.5039 8.0625C20.9883 8.19141 20.2148 8.69531 19.5 9.36328C19.1367 9.70312 18.832 10.1953 18.5742 10.8398C18.3164 11.4844 18.1875 12.2109 18.1875 13.0078C18.1875 14.5898 18.75 15.8555 19.8633 16.8047C20.9766 17.7539 22.6406 18.2344 24.8672 18.2344C26.1211 18.2344 27.3164 17.8945 27.9727 17.543C28.3008 17.3672 28.6055 17.168 28.8867 16.9336C29.4492 16.4648 29.5312 16.3125 29.5898 16.2188L31.5117 18.2344L34.0078 15.7969ZM24.9844 14.4023C23.6133 14.4023 22.7578 13.8047 22.7578 12.6445C22.7578 12 23.0742 11.4609 23.4023 11.2148C23.5547 11.0977 23.7422 11.0039 23.9531 10.9336C24.375 10.793 24.5039 10.7812 24.5977 10.7812L27.0938 13.4648L26.9297 13.6758C26.7422 14.0039 25.9688 14.4023 24.9844 14.4023ZM52.3945 18V9.23438H43.6406V12.4102H47.332V12.457L47.2383 12.6445C47.1094 12.9141 46.7461 13.3008 46.2305 13.6523C45.7148 14.0039 44.8008 14.3086 43.7109 14.3086C42.3164 14.3086 41.3203 13.875 40.6992 13.0078C40.0781 12.1406 39.7734 11.0039 39.7734 9.59766C39.7734 8.20312 40.1016 7.07812 40.7695 6.19922C41.4375 5.33203 42.4336 4.89844 43.7578 4.89844C44.918 4.89844 45.9023 5.33203 46.3945 5.77734C46.6406 6 46.8516 6.25781 47.0508 6.55078C47.4258 7.125 47.4492 7.3125 47.4844 7.44141H52.3242L52.2773 7.07812C52.1133 6.38672 51.7266 4.88672 50.4492 3.50391C50.0039 3.04688 49.5 2.625 48.9375 2.23828C47.8008 1.48828 45.9023 0.960938 43.7578 0.960938C41.0391 0.960938 38.8945 1.72266 37.3359 3.25781C35.7656 4.79297 34.9805 6.91406 34.9805 9.62109C34.9805 12.3281 35.7422 14.4375 37.2539 15.9492C38.7656 17.4727 40.8516 18.2344 43.5234 18.2344C44.8711 18.2344 46.125 17.8242 46.8281 17.4258C47.1797 17.2266 47.5078 17.0039 47.8125 16.7461C48.4219 16.2422 48.5039 16.0898 48.5625 15.9609H48.7031V18H52.3945ZM76.875 13.3242C76.875 12.0117 76.3008 10.9219 75.6914 10.3711C75.3867 10.1016 75.0469 9.86719 74.6602 9.67969C73.8984 9.31641 73.6758 9.30469 73.4883 9.26953V9.04688L73.7461 8.97656C74.1094 8.84766 74.6484 8.49609 75.1641 8.01562C75.6797 7.53516 76.0781 6.60938 76.0781 5.51953C76.0781 2.63672 74.25 1.19531 70.582 1.19531H61.875V18H70.793C72.9258 18 74.4727 17.625 75.4336 16.8867C76.3945 16.1484 76.875 14.9531 76.875 13.3242ZM69.4805 4.67578C70.6875 4.67578 71.2852 5.21484 71.2852 6.28125C71.2852 7.35938 70.6875 7.89844 69.4805 7.89844H66.4336V4.67578H69.4805ZM70.0078 10.9688C71.4141 10.9688 72.0703 11.6602 72.0703 12.7383C72.0703 13.8281 71.4141 14.5195 70.0078 14.5195H66.4336V10.9688H70.0078ZM79.2773 1.19531V4.85156H83.2617V14.3555H79.2773V18H91.8047V14.3555H87.8203V4.85156H91.8047V1.19531H79.2773ZM105.48 1.19531L99.4805 9.1875V1.19531H94.9219V18H99.4805V9.79688L105.785 18H111.07L104.426 9.48047L110.754 1.19531H105.48ZM127.102 18V14.3555H117.316V11.1328H125.473V7.67578H117.316V4.85156H127.102V1.19531H112.758V18H127.102Z" fill="white"/>
</svg>
