<svg width="22" height="22" viewBox="0 0 22 22" fill="none" xmlns="http://www.w3.org/2000/svg">
<path d="M21.8073 20.878L16.461 15.5317C17.8951 13.8829 18.7634 11.7317 18.7634 9.38049C18.7634 4.20488 14.5537 0 9.38293 0C4.20732 0 0.00244141 4.20976 0.00244141 9.38049C0.00244141 14.5512 4.2122 18.761 9.38293 18.761C11.7341 18.761 13.8854 17.8927 15.5342 16.4585L20.8805 21.8049C21.0073 21.9317 21.1781 22 21.3439 22C21.5098 22 21.6805 21.9366 21.8073 21.8049C22.061 21.5512 22.061 21.1317 21.8073 20.878ZM1.31464 9.38049C1.31464 4.93171 4.93415 1.31707 9.37805 1.31707C13.8268 1.31707 17.4415 4.93659 17.4415 9.38049C17.4415 13.8244 13.8268 17.4488 9.37805 17.4488C4.93415 17.4488 1.31464 13.8293 1.31464 9.38049Z" fill="white"/>
</svg>
